<svg xmlns="http://www.w3.org/2000/svg" width="1200" height="500" viewBox="0 0 1200 500">
<defs><marker id="arrow" markerWidth="10" markerHeight="8" refX="9" refY="4" orient="auto"><path d="M0,0 L10,4 L0,8 Z" fill="#000"/></marker></defs>
<style>text{font-family:"Songti SC","SimSun","PingFang SC",serif;fill:#000;font-size:23px}.small{font-size:18px}.box{fill:#fff;stroke:#000;stroke-width:3}.line{stroke:#000;stroke-width:3;fill:none;marker-end:url(#arrow)}</style>
<text x="600" y="45" text-anchor="middle" font-weight="700">库存维护触发器流程图</text>
<rect class="box" x="75" y="125" width="240" height="95"/><text x="195" y="165" text-anchor="middle">插入订单明细</text><text class="small" x="195" y="195" text-anchor="middle">trg_order_item_insert</text>
<rect class="box" x="475" y="125" width="250" height="95"/><text x="600" y="165" text-anchor="middle">房型可订数 -1</text><text class="small" x="600" y="195" text-anchor="middle">available_count</text>
<rect class="box" x="885" y="125" width="240" height="95"/><text x="1005" y="165" text-anchor="middle">订单可入住</text><text class="small" x="1005" y="195" text-anchor="middle">库存保持一致</text>
<rect class="box" x="75" y="315" width="240" height="95"/><text x="195" y="355" text-anchor="middle">订单退订</text><text class="small" x="195" y="385" text-anchor="middle">trg_order_cancel</text>
<rect class="box" x="475" y="315" width="250" height="95"/><text x="600" y="355" text-anchor="middle">房型可订数 +1</text><text class="small" x="600" y="385" text-anchor="middle">恢复库存</text>
	<rect class="box" x="885" y="315" width="240" height="95"/><text x="1005" y="355" text-anchor="middle">订单状态更新</text><text class="small" x="1005" y="385" text-anchor="middle">已退订</text>
	<path class="line" d="M315 173 H470"/><path class="line" d="M725 173 H880"/><path class="line" d="M315 363 H470"/><path class="line" d="M725 363 H880"/>
	</svg>